<svg width="62" height="62" viewBox="0 0 62 62" fill="none" xmlns="http://www.w3.org/2000/svg">
<g clip-path="url(#clip0_2_73)">
<path d="M31 61.77C47.5685 61.77 61 48.3386 61 31.77C61 15.2015 47.5685 1.77002 31 1.77002C14.4315 1.77002 1 15.2015 1 31.77C1 48.3386 14.4315 61.77 31 61.77Z" fill="#E7C873"/>
<path fill-rule="evenodd" clip-rule="evenodd" d="M44.4202 20.8913C44.5102 20.2988 44.2577 19.705 43.769 19.3563C43.2802 19.0088 42.6365 18.965 42.1052 19.2438C37.854 21.4763 22.9827 29.2838 18.4152 31.6813C17.8515 31.9763 17.519 32.5788 17.5677 33.2125C17.6165 33.8463 18.0365 34.3913 18.639 34.5975C20.4177 35.2063 22.5915 35.9525 26.0002 37.1213L39.7502 24.27L28.6227 38.02C32.2577 39.2663 37.9415 41.215 39.3677 41.7038C39.814 41.8575 40.3065 41.8038 40.7102 41.56C41.114 41.315 41.3877 40.9038 41.459 40.4363L44.4202 20.8913Z" fill="#1F4B43"/>
<path fill-rule="evenodd" clip-rule="evenodd" d="M27.04 38.7988V42.8863C27.04 43.5138 27.4088 44.0826 27.98 44.3388C28.5525 44.5963 29.2213 44.4938 29.69 44.0763L33.2375 40.9238L27.04 38.7988Z" fill="#1F4B43"/>
</g>
<defs>
<clipPath id="clip0_2_73">
<rect width="61" height="61" fill="white" transform="translate(0.5 0.870117)"/>
</clipPath>
</defs>
</svg>
