<svg width="200" height="57" viewBox="0 0 200 57" fill="none" xmlns="http://www.w3.org/2000/svg">
<g clip-path="url(#clip0_2_88)">
<g clip-path="url(#clip1_2_88)">
<g clip-path="url(#clip2_2_88)">
<path fill-rule="evenodd" clip-rule="evenodd" d="M24.4471 15.7295L24.4353 56.3716L28.7746 56.3595L28.7625 42.173L36.4281 42.1609L36.416 56.3595H40.9578V1.22754L36.4039 4.2471L36.3983 37.8742L28.8102 37.8491L28.8162 8.24186L0 24.9106L0.0387793 47.7593L4.59272 47.7717L4.59861 27.4386L24.4471 15.7295Z" fill="white"/>
<path fill-rule="evenodd" clip-rule="evenodd" d="M16.567 56.1695V25.2947L12.0856 27.9212L12.1802 51.9766L0.0686547 51.8815L0.00878906 56.1453L16.567 56.1695Z" fill="white"/>
<path d="M72.3921 33.309V18.3765H76.0586V33.309C76.0586 34.7255 75.7555 35.9321 75.1493 36.9285C74.5431 37.925 73.717 38.687 72.6708 39.2146C71.6246 39.7421 70.4367 40.0059 69.107 40.0059C67.7479 40.0059 66.5404 39.7763 65.4845 39.3171C64.4383 38.858 63.6171 38.1546 63.0206 37.207C62.4242 36.2593 62.126 35.0577 62.126 33.6021H65.8218C65.8218 34.4422 65.9538 35.1212 66.2178 35.639C66.4916 36.147 66.8729 36.5182 67.3617 36.7527C67.8604 36.9774 68.4421 37.0897 69.107 37.0897C69.7425 37.0897 70.3047 36.9481 70.7936 36.6648C71.2922 36.3717 71.6833 35.9467 71.9668 35.3899C72.2504 34.8232 72.3921 34.1296 72.3921 33.309Z" fill="white"/>
<path d="M89.4925 35.9761V23.8572H93.0416V39.7129H89.6978L89.4925 35.9761ZM89.9911 32.679L91.179 32.6497C91.179 33.7145 91.0617 34.6963 90.8271 35.5951C90.5924 36.4841 90.2306 37.2608 89.7418 37.9251C89.2529 38.5797 88.6272 39.0926 87.8645 39.4638C87.1019 39.8253 86.1877 40.006 85.122 40.006C84.3496 40.006 83.6408 39.8936 82.9955 39.6689C82.3502 39.4442 81.7929 39.0974 81.3236 38.6285C80.864 38.1596 80.5072 37.549 80.253 36.7967C79.9987 36.0445 79.8716 35.1457 79.8716 34.1004V23.8572H83.4061V34.1297C83.4061 34.7061 83.4746 35.1897 83.6114 35.5805C83.7483 35.9615 83.9341 36.2692 84.1687 36.5037C84.4034 36.7381 84.6772 36.9042 84.99 37.0019C85.3029 37.0996 85.6353 37.1484 85.9873 37.1484C86.9944 37.1484 87.7863 36.9531 88.3632 36.5623C88.9498 36.1617 89.3654 35.6244 89.6098 34.9503C89.864 34.2763 89.9911 33.5191 89.9911 32.679Z" fill="white"/>
<path d="M105.566 35.4192C105.566 35.0675 105.478 34.75 105.302 34.4667C105.126 34.1736 104.789 33.9098 104.29 33.6753C103.802 33.4409 103.078 33.2259 102.12 33.0306C101.279 32.8449 100.507 32.6251 99.8028 32.3711C99.1086 32.1074 98.5122 31.7899 98.0135 31.4186C97.5149 31.0474 97.1287 30.6078 96.8549 30.0998C96.5812 29.5917 96.4443 29.0056 96.4443 28.3413C96.4443 27.6965 96.5861 27.0859 96.8696 26.5095C97.1531 25.9331 97.5589 25.4251 98.0869 24.9855C98.6148 24.5459 99.2552 24.1991 100.008 23.9451C100.771 23.691 101.621 23.564 102.56 23.564C103.89 23.564 105.029 23.7887 105.977 24.2381C106.935 24.6778 107.668 25.2786 108.177 26.0406C108.685 26.7928 108.94 27.6428 108.94 28.5904H105.405C105.405 28.1703 105.297 27.7795 105.082 27.4181C104.877 27.0468 104.564 26.7489 104.144 26.5242C103.723 26.2897 103.195 26.1725 102.56 26.1725C101.954 26.1725 101.45 26.2702 101.049 26.4655C100.658 26.6512 100.365 26.8954 100.169 27.1982C99.9837 27.5011 99.8908 27.8333 99.8908 28.1947C99.8908 28.4585 99.9397 28.6978 100.037 28.9128C100.145 29.1179 100.321 29.3084 100.565 29.4843C100.81 29.6504 101.142 29.8067 101.563 29.9532C101.993 30.0998 102.531 30.2414 103.176 30.3782C104.388 30.6322 105.429 30.9595 106.3 31.36C107.18 31.7508 107.854 32.2588 108.324 32.884C108.793 33.4995 109.028 34.281 109.028 35.2287C109.028 35.9321 108.876 36.5768 108.573 37.163C108.28 37.7394 107.849 38.2425 107.282 38.6724C106.715 39.0924 106.036 39.4197 105.244 39.6542C104.462 39.8887 103.582 40.0059 102.604 40.0059C101.167 40.0059 99.9494 39.7519 98.9522 39.2439C97.9549 38.7261 97.1971 38.0667 96.6789 37.2656C96.1705 36.4547 95.9163 35.6146 95.9163 34.7451H99.3335C99.3726 35.3996 99.5535 35.9223 99.8761 36.3131C100.208 36.6941 100.619 36.9725 101.108 37.1483C101.607 37.3144 102.12 37.3975 102.648 37.3975C103.283 37.3975 103.816 37.3144 104.246 37.1483C104.677 36.9725 105.004 36.738 105.229 36.445C105.454 36.1421 105.566 35.8002 105.566 35.4192Z" fill="white"/>
<path d="M119.396 23.8572V26.4363H110.45V23.8572H119.396ZM113.031 19.9739H116.566V35.3313C116.566 35.8198 116.634 36.1959 116.771 36.4597C116.918 36.7137 117.118 36.8847 117.372 36.9726C117.627 37.0605 117.925 37.1045 118.267 37.1045C118.511 37.1045 118.746 37.0898 118.971 37.0605C119.196 37.0312 119.377 37.0019 119.514 36.9726L119.528 39.6689C119.235 39.7569 118.893 39.835 118.502 39.9034C118.12 39.9718 117.68 40.006 117.182 40.006C116.37 40.006 115.652 39.8643 115.026 39.581C114.4 39.2879 113.911 38.8141 113.559 38.1596C113.207 37.505 113.031 36.6356 113.031 35.5512V19.9739Z" fill="white"/>
<path d="M136.585 27.2862V30.2023H125.248V27.2862H136.585ZM126.157 18.3765V39.7128H122.476V18.3765H126.157ZM139.415 18.3765V39.7128H135.749V18.3765H139.415Z" fill="white"/>
<path d="M142.774 31.9608V31.6238C142.774 30.4808 142.94 29.4208 143.272 28.4438C143.605 27.4571 144.084 26.6023 144.71 25.8794C145.345 25.1467 146.118 24.5801 147.027 24.1795C147.946 23.7692 148.982 23.564 150.136 23.564C151.299 23.564 152.336 23.7692 153.245 24.1795C154.164 24.5801 154.942 25.1467 155.577 25.8794C156.213 26.6023 156.697 27.4571 157.029 28.4438C157.361 29.4208 157.528 30.4808 157.528 31.6238V31.9608C157.528 33.1038 157.361 34.1638 157.029 35.1407C156.697 36.1177 156.213 36.9725 155.577 37.7052C154.942 38.4281 154.169 38.9948 153.26 39.4051C152.351 39.8056 151.319 40.0059 150.165 40.0059C149.002 40.0059 147.961 39.8056 147.041 39.4051C146.132 38.9948 145.36 38.4281 144.724 37.7052C144.089 36.9725 143.605 36.1177 143.272 35.1407C142.94 34.1638 142.774 33.1038 142.774 31.9608ZM146.308 31.6238V31.9608C146.308 32.674 146.382 33.3481 146.528 33.9831C146.675 34.6181 146.905 35.1749 147.217 35.6536C147.53 36.1323 147.931 36.5085 148.42 36.782C148.909 37.0555 149.491 37.1923 150.165 37.1923C150.82 37.1923 151.387 37.0555 151.867 36.782C152.355 36.5085 152.756 36.1323 153.069 35.6536C153.382 35.1749 153.612 34.6181 153.758 33.9831C153.915 33.3481 153.993 32.674 153.993 31.9608V31.6238C153.993 30.9204 153.915 30.2561 153.758 29.6308C153.612 28.9958 153.377 28.4341 153.055 27.9456C152.742 27.4571 152.341 27.0761 151.852 26.8026C151.373 26.5193 150.801 26.3776 150.136 26.3776C149.471 26.3776 148.894 26.5193 148.405 26.8026C147.926 27.0761 147.53 27.4571 147.217 27.9456C146.905 28.4341 146.675 28.9958 146.528 29.6308C146.382 30.2561 146.308 30.9204 146.308 31.6238Z" fill="white"/>
<path d="M164.025 27.081V39.7128H160.49V23.8571H163.819L164.025 27.081ZM163.453 31.1988L162.25 31.1842C162.25 30.09 162.387 29.0789 162.661 28.1508C162.934 27.2227 163.335 26.4167 163.863 25.7328C164.391 25.0392 165.046 24.5068 165.828 24.1356C166.62 23.7546 167.535 23.564 168.571 23.564C169.295 23.564 169.954 23.6715 170.551 23.8864C171.157 24.0916 171.68 24.4189 172.12 24.8683C172.57 25.3176 172.912 25.894 173.147 26.5974C173.391 27.3008 173.513 28.1508 173.513 29.1472V39.7128H169.979V29.455C169.979 28.6832 169.862 28.0775 169.627 27.6379C169.402 27.1983 169.075 26.8856 168.644 26.7C168.224 26.5046 167.72 26.4069 167.134 26.4069C166.469 26.4069 165.902 26.5339 165.433 26.7879C164.973 27.0419 164.597 27.3888 164.303 27.8284C164.01 28.268 163.795 28.776 163.658 29.3524C163.521 29.9288 163.453 30.5443 163.453 31.1988ZM173.293 30.2609L171.636 30.6273C171.636 29.6699 171.768 28.7662 172.032 27.9163C172.306 27.0566 172.702 26.3044 173.22 25.6596C173.748 25.005 174.398 24.4921 175.171 24.1209C175.943 23.7497 176.828 23.564 177.825 23.564C178.637 23.564 179.36 23.6764 179.996 23.9011C180.641 24.116 181.189 24.4579 181.638 24.9269C182.088 25.3958 182.43 26.0064 182.665 26.7586C182.9 27.5011 183.017 28.3999 183.017 29.455V39.7128H179.468V29.4403C179.468 28.6392 179.35 28.0189 179.116 27.5793C178.891 27.1396 178.568 26.8368 178.148 26.6707C177.727 26.4949 177.224 26.4069 176.637 26.4069C176.09 26.4069 175.606 26.5095 175.185 26.7147C174.775 26.9101 174.428 27.1885 174.144 27.5499C173.861 27.9016 173.645 28.3071 173.499 28.7662C173.362 29.2254 173.293 29.7236 173.293 30.2609Z" fill="white"/>
<path d="M193.65 40.0059C192.476 40.0059 191.416 39.8154 190.467 39.4344C189.529 39.0436 188.727 38.5014 188.062 37.8078C187.407 37.1142 186.903 36.2984 186.551 35.3606C186.199 34.4227 186.023 33.4116 186.023 32.3272V31.741C186.023 30.5003 186.204 29.3768 186.566 28.3706C186.928 27.3643 187.431 26.5046 188.077 25.7915C188.722 25.0685 189.485 24.5166 190.365 24.1356C191.244 23.7546 192.198 23.564 193.224 23.564C194.359 23.564 195.351 23.7546 196.202 24.1356C197.052 24.5166 197.756 25.0539 198.313 25.7475C198.88 26.4314 199.301 27.2471 199.575 28.1947C199.858 29.1424 200 30.1877 200 31.3307V32.8401H187.739V30.3049H196.51V30.0265C196.49 29.3915 196.363 28.7955 196.128 28.2387C195.903 27.6818 195.556 27.2324 195.087 26.8905C194.618 26.5486 193.992 26.3776 193.21 26.3776C192.623 26.3776 192.1 26.5046 191.64 26.7586C191.191 27.0029 190.814 27.3594 190.511 27.8284C190.208 28.2973 189.973 28.8639 189.807 29.5282C189.651 30.1828 189.573 30.9204 189.573 31.741V32.3272C189.573 33.0208 189.665 33.6656 189.851 34.2615C190.047 34.8477 190.33 35.3606 190.702 35.8002C191.073 36.2398 191.523 36.5866 192.051 36.8406C192.579 37.0848 193.18 37.207 193.855 37.207C194.706 37.207 195.463 37.036 196.128 36.6941C196.793 36.3521 197.37 35.8686 197.859 35.2433L199.721 37.0458C199.379 37.544 198.934 38.0227 198.387 38.4819C197.839 38.9313 197.169 39.2976 196.378 39.5809C195.595 39.8642 194.686 40.0059 193.65 40.0059Z" fill="white"/>
</g>
</g>
</g>
<defs>
<clipPath id="clip0_2_88">
<rect width="200" height="56" fill="white" transform="translate(0 0.370117)"/>
</clipPath>
<clipPath id="clip1_2_88">
<rect width="200" height="56" fill="white" transform="translate(0 0.370117)"/>
</clipPath>
<clipPath id="clip2_2_88">
<rect width="200" height="56" fill="white" transform="translate(0 0.370117)"/>
</clipPath>
</defs>
</svg>
